<svg width="74" height="65" viewBox="0 0 74 65" fill="none" xmlns="http://www.w3.org/2000/svg">
<path opacity="0.95" d="M62.8808 18.7196C62.8808 18.7196 64.1908 9.78962 72.2408 12.7296C72.2408 12.7296 73.0008 12.0596 73.7508 12.0596C73.7508 12.0596 75.3408 7.91962 67.5708 6.87962C67.5708 6.87962 67.0508 6.84962 65.3008 5.29962L63.1508 4.53962C63.1508 4.53962 62.4908 4.57962 62.3208 4.74962C62.3208 4.74962 62.1908 4.82962 61.3908 4.36962C61.3908 4.36962 61.0008 4.10962 60.6208 4.49962C60.6208 4.49962 59.9908 4.18962 59.8908 4.70962L57.9908 11.8696C57.9908 11.8696 58.1308 12.1596 53.3208 19.0496C53.3208 19.0496 48.9108 21.7796 42.8508 12.6396C42.8508 12.6396 38.5408 7.47962 33.9308 6.38962C33.9308 6.38962 28.0008 -5.87038 15.8508 3.69962C15.8508 3.69962 11.7608 7.03962 10.0808 7.41962C10.0808 7.41962 4.00078 8.36962 5.05078 10.8196C5.05078 10.8196 5.53078 11.2296 4.08078 12.4896C4.08078 12.4896 1.21078 15.2496 1.36078 21.2296C1.36078 21.2296 2.41078 27.9596 0.680781 30.9596L1.46078 35.2896L2.04078 31.4696L2.16078 35.8496C2.16078 35.8496 0.740781 42.6596 0.0507812 45.0696C0.0507812 45.0696 3.72078 56.7996 3.51078 61.5696C3.51078 61.5696 4.32078 62.4496 4.19078 63.2796C4.19078 63.2796 3.69078 64.2796 4.34078 64.5896C4.34078 64.5896 6.77078 65.3396 8.45078 64.5596C8.45078 64.5596 8.90078 64.3796 9.15078 64.1696C9.15078 64.1696 9.17078 63.2696 8.15078 62.9296C8.15078 62.9296 7.14078 62.7996 6.68078 62.2396C6.68078 62.2396 5.82078 61.5496 5.19078 58.9296C5.19078 58.9296 3.98078 51.5896 4.22078 51.0296L4.64078 42.8796L6.12078 36.9196L5.54078 45.3096C5.54078 45.3096 11.7508 57.3796 11.7508 59.9996L12.7308 61.0496C12.7308 61.0496 12.3008 61.8096 13.0008 62.6296C13.0008 62.6296 13.8008 63.0496 17.2308 62.4496C17.2308 62.4496 18.1208 61.4896 16.4508 60.8796C16.4508 60.8796 15.0208 60.7196 14.2908 59.8196L12.9508 57.7196L10.6908 50.6296L9.72078 44.2796L10.0208 37.7296L10.2608 35.4196L11.6008 32.4196L12.4308 29.9596L12.0808 28.2196L12.6708 26.9696L12.2308 25.1196C12.2308 25.1196 17.7808 32.7896 29.6708 31.1496C29.6708 31.1496 32.8708 32.2396 34.4208 31.0496C34.4208 31.0496 35.4808 35.7196 33.4408 43.4496C33.4408 43.4496 34.1308 57.5996 33.1508 58.8996C33.1508 58.8996 33.9908 60.2096 33.5908 60.7696C33.5908 60.7696 32.9208 61.3696 33.0008 61.9696C33.0008 61.9696 33.0508 62.9396 36.0508 62.9596C36.0508 62.9596 35.6308 63.8096 35.9808 64.0696C35.9808 64.0696 36.8608 65.0896 40.9708 64.6296L41.2308 64.4196C41.2308 64.4196 41.9008 64.4196 42.0008 64.2696C42.1008 64.1196 41.6908 63.0696 41.3908 62.9496C41.3908 62.9496 39.8708 62.6596 39.1508 61.5896C39.1508 61.5896 38.8008 60.2596 38.3408 58.9896C37.8808 57.7196 37.4208 50.6096 37.4208 50.6096L38.2308 47.3596L38.3308 40.4096L39.6208 32.9396L40.9308 30.0096L43.2008 27.5596C43.2008 27.5596 57.6408 34.2696 62.8908 18.6796L62.8808 18.7196Z" fill="white" stroke="black" stroke-width="0.1" stroke-miterlimit="10"/>
<path opacity="0.95" d="M35.3808 50.6719C35.3808 50.6719 33.5308 56.6219 35.3808 59.3619L35.9408 60.3119C35.9408 60.3119 37.2208 52.1419 35.3808 50.6719Z" fill="black" stroke="black" stroke-width="0.1" stroke-miterlimit="10"/>
</svg>
